<?xml version="1.0" standalone="no"?>
<!DOCTYPE svg PUBLIC "-//W3C//DTD SVG 20010904//EN"
 "http://www.w3.org/TR/2001/REC-SVG-20010904/DTD/svg10.dtd">
<svg version="1.0" xmlns="http://www.w3.org/2000/svg"
 width="512.000000pt" height="512.000000pt" viewBox="0 0 512.000000 512.000000"
 preserveAspectRatio="xMidYMid meet">

<g transform="translate(0.000000,512.000000) scale(0.100000,-0.100000)"
fill="#000000" stroke="none">
<path d="M0 2560 l0 -2560 2560 0 2560 0 0 2560 0 2560 -2560 0 -2560 0 0
-2560z m1208 1580 c102 -400 361 -721 733 -907 100 -50 90 -50 229 0 234 85
505 89 745 11 44 -15 92 -33 107 -40 41 -21 55 -18 161 35 427 215 716 642
756 1120 l7 86 26 -55 c64 -138 109 -320 133 -535 14 -121 13 -150 0 -277 -41
-377 -171 -690 -395 -956 l-62 -74 26 -91 c14 -51 30 -123 36 -162 5 -40 10
-324 10 -655 l0 -585 -380 -190 -380 -190 0 390 0 390 200 100 200 100 0 217
0 218 -805 0 -805 0 0 -218 0 -217 200 -100 200 -100 0 -390 0 -390 -380 190
-380 190 0 580 c0 624 5 696 53 843 23 71 23 72 4 90 -66 59 -196 249 -265
388 -219 436 -240 935 -59 1394 l42 105 7 -100 c4 -55 20 -152 36 -215z"/>
</g>
</svg>
